<?xml version="1.0" encoding="utf-8"?>
<!-- Generator: Adobe Illustrator 16.0.4, SVG Export Plug-In . SVG Version: 6.00 Build 0)  -->
<!DOCTYPE svg PUBLIC "-//W3C//DTD SVG 1.1//EN" "http://www.w3.org/Graphics/SVG/1.1/DTD/svg11.dtd">
<svg version="1.1" id="Layer_1" xmlns="http://www.w3.org/2000/svg" xmlns:xlink="http://www.w3.org/1999/xlink" x="0px" y="0px"
	 width="922.574px" height="921.072px" viewBox="0 0 922.574 921.072" enable-background="new 0 0 922.574 921.072"
	 xml:space="preserve">
<polygon fill="#FFFFFF" points="745.945,829.042 515.072,577.222 572.635,913.972 464.146,590.02 379.763,921.072 412.421,580.999 
	200.682,849.108 368.835,551.721 66.352,710.526 340.928,507.239 0,529.291 333.52,455.256 13.101,336.731 347.896,404.756 
	103.393,166.153 381.576,364.471 255.257,47.045 428.724,341.366 442.436,0 481.197,339.435 632.566,33.157 529.92,359.012 
	792.776,140.782 566.468,396.714 895.356,304.264 584.514,446.021 922.574,495.336 580.951,498.409 869.724,680.964 
	556.388,544.815 "/>
</svg>
